<svg id="Layer_1" data-name="Layer 1" xmlns="http://www.w3.org/2000/svg" viewBox="0 0 400 400"><defs><style>.cls-1{fill:#1d1d1b;}</style></defs><path class="cls-1" d="M330,390h30l-50-80a40,40,0,0,0,40-40V50a40,40,0,0,0-40-40H90A40,40,0,0,0,50,50V270a40,40,0,0,0,40,40L40,390H70l6.25-10h247.5Zm-28.12-45H98.12l9.38-15h185ZM290,270a20,20,0,1,1,20-20A20,20,0,0,1,290,270ZM320,81.72v86.56A11.72,11.72,0,0,1,308.28,180H221.72A11.72,11.72,0,0,1,210,168.28V81.72A11.72,11.72,0,0,1,221.72,70h86.56A11.72,11.72,0,0,1,320,81.72ZM140,30H260V50H140ZM80,168.28V81.72A11.72,11.72,0,0,1,91.72,70h86.56A11.72,11.72,0,0,1,190,81.72v86.56A11.72,11.72,0,0,1,178.28,180H91.72A11.72,11.72,0,0,1,80,168.28ZM130,250a20,20,0,1,1-20-20A20,20,0,0,1,130,250Zm150,60,6.25,10H113.75L120,310ZM82.5,370l9.38-15H308.12l9.38,15Z"/></svg>