<svg id="Layer_1" data-name="Layer 1" xmlns="http://www.w3.org/2000/svg" viewBox="0 0 400 400"><path d="M59.57,10V43h-33V390h347V109.13H241.3V43h-33V10ZM76.09,26.52H191.74V59.57h33V373.48H150.43V315.65h-33v57.83H43V59.57H76.09Zm0,49.57V92.61H92.61V76.09Zm33,0V92.61h16.52V76.09Zm33,0V92.61H158.7V76.09Zm33.05,0V92.61h16.52V76.09Zm-99.13,41.3v33H92.61v-33Zm33,0v33h16.52v-33Zm33,0v33H158.7v-33Zm33.05,0v33h16.52v-33Zm66.08,8.26H357V373.48H241.3Zm16.53,16.52V158.7h16.52V142.17Zm33,0V158.7h16.52V142.17Zm33,0V158.7h16.52V142.17ZM76.09,167v33H92.61V167Zm33,0v33h16.52V167Zm33,0v33H158.7V167Zm33.05,0v33h16.52V167Zm82.61,8.26v16.52h16.52V175.22Zm33,0v16.52h16.52V175.22Zm33,0v16.52h16.52V175.22Zm-66.08,33v16.52h16.52V208.26Zm33,0v16.52h16.52V208.26Zm33,0v16.52h16.52V208.26ZM76.09,216.52v33H92.61v-33Zm33,0v33h16.52v-33Zm33,0v33H158.7v-33Zm33.05,0v33h16.52v-33Zm82.61,24.78v16.53h16.52V241.3Zm33,0v16.53h16.52V241.3Zm33,0v16.53h16.52V241.3ZM76.09,266.09v33H92.61v-33Zm33,0v33h16.52v-33Zm33,0v33H158.7v-33Zm33.05,0v33h16.52v-33Zm82.61,8.26v16.52h16.52V274.35Zm33,0v16.52h16.52V274.35Zm33,0v16.52h16.52V274.35Zm-66.08,33v16.52h16.52V307.39Zm33,0v16.52h16.52V307.39Zm33,0v16.52h16.52V307.39ZM76.09,315.65V357H92.61V315.65Zm99.13,0V357h16.52V315.65Zm82.61,24.78V357h16.52V340.43Zm33,0V357h16.52V340.43Zm33,0V357h16.52V340.43Z"/></svg>