<svg id="Layer_1" data-name="Layer 1" xmlns="http://www.w3.org/2000/svg" viewBox="0 0 400 400"><path d="M365,38.8,352.65,10,315.11,26.09a41.76,41.76,0,0,0-71.19,29.65c0,.24,0,.48,0,.72-45.55,20.55-83,42.47-111.65,65.39-47.23,37.77-71.17,78.79-71.17,121.91v23.95a41.77,41.77,0,0,0,0,77.45V390H92.46V345.16a41.77,41.77,0,0,0,0-77.45V243.76c0-67.68,82.41-121.66,163.75-158.46a41.75,41.75,0,0,0,71.27-29.56c0-.29,0-.57,0-.85ZM76.79,327.33a20.9,20.9,0,1,1,20.89-20.9A20.92,20.92,0,0,1,76.79,327.33ZM285.7,76.63a20.89,20.89,0,1,1,20.89-20.89A20.91,20.91,0,0,1,285.7,76.63Z"/></svg>