<svg id="Layer_1" data-name="Layer 1" xmlns="http://www.w3.org/2000/svg" viewBox="0 0 400 400"><path d="M328.31,139.26l10.5-94.5L234.53,10,155.66,59.29,116.11,19.73l-73,24.33L20.75,167.16l71.19,81.36L70.57,334l156.82,56,85-63.74L368,304l11.27-124ZM237.2,32.41l79.49,26.5-9.92,89.27,51.15,40.92-2.37,26.09H290.18l-62-44.26L248,144.55,199,56.3ZM110.59,43.1l42.12,42.12,28.93-18.08,42.08,75.75-17.4,23.21L186.23,172,43.66,155.27l17.4-95.66ZM56.82,177.38l117,13.76-9.26,83.32L146,339.26,94.87,321l19.47-77.88ZM302.28,308.3l-78.36,58.78-58.61-20.93,19.35-67.73,9.43-84.89L216,187.27h0l67.67,48.34H353.7l-4.92,54.1Z"/></svg>