<svg id="Layer_1" data-name="Layer 1" xmlns="http://www.w3.org/2000/svg" viewBox="0 0 400 400"><path d="M378.13,318.79v-190A23.77,23.77,0,0,0,354.37,105H330.6a23.77,23.77,0,0,0-23.77,23.77V330.65H378.1V318.79Zm-95,0V45.65a23.77,23.77,0,0,0-23.76-23.77H235.6a23.77,23.77,0,0,0-23.77,23.77v285H283.1V318.79Zm100.94,35.59H15.93A5.94,5.94,0,0,0,10,360.32v11.86a5.94,5.94,0,0,0,5.93,5.94H384.07a5.94,5.94,0,0,0,5.93-5.94V360.32A6,6,0,0,0,384.07,354.38ZM93.13,318.79v-47.5a23.77,23.77,0,0,0-23.76-23.77H45.6a23.77,23.77,0,0,0-23.77,23.77v59.36H93.1V318.79Zm95,0V211.88a23.76,23.76,0,0,0-23.76-23.76H140.6a23.77,23.77,0,0,0-23.77,23.76V330.62H188.1V318.79Z"/></svg>