<svg id="Layer_1" data-name="Layer 1" xmlns="http://www.w3.org/2000/svg" viewBox="0 0 400 400"><path d="M370.55,160.11l-26.67-4.52a150.26,150.26,0,0,0-10.72-25.88l15.72-22a23.4,23.4,0,0,0-2.54-30.24L322.68,53.82a23.32,23.32,0,0,0-30.16-2.54L270.45,67a148.63,148.63,0,0,0-26.83-11l-4.45-26.35A23.45,23.45,0,0,0,216,10H182.57A23.44,23.44,0,0,0,159.4,29.61l-4.61,27A147.58,147.58,0,0,0,129,67.47L107.16,51.76A23.43,23.43,0,0,0,76.92,54.3L53.18,78a23.52,23.52,0,0,0-2.54,30.25l15.88,22.3a147.07,147.07,0,0,0-10.56,26L29.61,160.9A23.46,23.46,0,0,0,10,184.08V217.5a23.45,23.45,0,0,0,19.61,23.18l27,4.61a147.58,147.58,0,0,0,10.87,25.8L51.83,292.84a23.42,23.42,0,0,0,2.54,30.24L78,346.74a23.33,23.33,0,0,0,16.59,6.9,23.08,23.08,0,0,0,13.57-4.36L130.5,333.4a149.91,149.91,0,0,0,25.09,10.32L160,370.39A23.46,23.46,0,0,0,183.21,390h33.5a23.46,23.46,0,0,0,23.18-19.61l4.52-26.67A150.26,150.26,0,0,0,270.29,333l22,15.72a23.29,23.29,0,0,0,13.65,4.37h0a23.28,23.28,0,0,0,16.59-6.91l23.66-23.66a23.49,23.49,0,0,0,2.54-30.24L333,270.21a148.86,148.86,0,0,0,10.72-25.88l26.67-4.44A23.46,23.46,0,0,0,390,216.71V183.29A23.17,23.17,0,0,0,370.55,160.11Zm-1.83,56.6a2.05,2.05,0,0,1-1.74,2.06l-33.34,5.56a10.67,10.67,0,0,0-8.58,7.86,126.91,126.91,0,0,1-13.81,33.26,10.74,10.74,0,0,0,.48,11.67l19.6,27.62a2.16,2.16,0,0,1-.23,2.7L307.44,331.1a2.07,2.07,0,0,1-2.7.24L277.2,311.73a10.74,10.74,0,0,0-11.67-.48,126.91,126.91,0,0,1-33.26,13.81,10.54,10.54,0,0,0-7.86,8.58L218.77,367a2.05,2.05,0,0,1-2.06,1.74H183.29a2,2,0,0,1-2.06-1.74l-5.56-33.34a10.68,10.68,0,0,0-7.86-8.58,131.87,131.87,0,0,1-32.55-13.33,11,11,0,0,0-5.39-1.43,10.53,10.53,0,0,0-6.2,2L95.89,332.05a2.35,2.35,0,0,1-1.19.4,2.12,2.12,0,0,1-1.51-.64L69.54,308.16a2.14,2.14,0,0,1-.24-2.7l19.53-27.39a10.86,10.86,0,0,0,.47-11.75,126,126,0,0,1-14-33.18,10.87,10.87,0,0,0-8.57-7.86l-33.58-5.71a2.06,2.06,0,0,1-1.75-2.07V184.08A2.06,2.06,0,0,1,33.18,182l33.1-5.56a10.72,10.72,0,0,0,8.65-7.93,127,127,0,0,1,13.58-33.34A10.61,10.61,0,0,0,88,123.6L68.19,95.81a2.16,2.16,0,0,1,.23-2.7L92.08,69.46a2,2,0,0,1,1.51-.64,2,2,0,0,1,1.19.4l27.39,19.53a10.84,10.84,0,0,0,11.74.47,126.1,126.1,0,0,1,33.19-14A10.86,10.86,0,0,0,175,66.68l5.72-33.58a2.06,2.06,0,0,1,2.06-1.75h33.42a2.07,2.07,0,0,1,2.07,1.75l5.55,33.1a10.76,10.76,0,0,0,7.94,8.66,128.69,128.69,0,0,1,34.06,14,10.74,10.74,0,0,0,11.67-.48l27.38-19.69a2.46,2.46,0,0,1,1.19-.39,2.15,2.15,0,0,1,1.51.63l23.66,23.66a2.15,2.15,0,0,1,.23,2.7l-19.6,27.54a10.74,10.74,0,0,0-.48,11.67,126.91,126.91,0,0,1,13.81,33.26,10.54,10.54,0,0,0,8.58,7.86l33.34,5.64a2.05,2.05,0,0,1,1.74,2.06v33.42Z"/><path d="M200,118a82,82,0,1,0,82,82A82,82,0,0,0,200,118Zm0,142.57A60.57,60.57,0,1,1,260.61,200,60.61,60.61,0,0,1,200,260.53Z"/></svg>